<svg xmlns="http://www.w3.org/2000/svg" version="1.1" xmlns:xlink="http://www.w3.org/1999/xlink" xmlns:svgjs="http://svgjs.dev/svgjs" width="128" height="128" viewBox="0 0 128 128"><g transform="matrix(0.8046875,0,0,0.8046875,12.760752631578946,28.696529726968684)"><svg viewBox="0 0 95 66" data-background-color="#ffffff" preserveAspectRatio="xMidYMid meet" height="88" width="128" xmlns="http://www.w3.org/2000/svg" xmlns:xlink="http://www.w3.org/1999/xlink"><g id="tight-bounds" transform="matrix(1,0,0,1,-0.24049999999999727,-0.09579469698051923)"><svg viewBox="0 0 95.481 66.19158939396102" height="66.19158939396102" width="95.481"><g><svg viewBox="0 0 95.481 66.19158939396102" height="66.19158939396102" width="95.481"><g><svg viewBox="0 0 95.481 66.19158939396102" height="66.19158939396102" width="95.481"><g><svg viewBox="0 0 95.481 66.19158939396102" height="66.19158939396102" width="95.481"><g><svg viewBox="0 0 95.481 66.19158939396102" height="66.19158939396102" width="95.481"><g><svg viewBox="0 0 95.481 66.19158939396102" height="66.19158939396102" width="95.481"><g><svg xmlns="http://www.w3.org/2000/svg" xmlns:xlink="http://www.w3.org/1999/xlink" version="1.1" x="0" y="0" viewBox="20.37 30.698 70.11099999999999 48.604000000000006" enable-background="new 0 0 100 100" xml:space="preserve" height="66.19158939396102" width="95.481" class="icon-icon-0" data-fill-palette-color="accent" id="icon-0"><g fill="#000000" data-fill-palette-color="accent"><path d="M25.452 63.114V38.787l24.15 22.888 24.111-22.838v12.873l5.082 2.938V30.698H20.37v37.498h37.479c1.139-1.816 2.525-3.544 4.16-5.082H25.452zM69.55 35.78L49.603 54.677 29.659 35.78H69.55z" fill="#000000" data-fill-palette-color="accent"></path><path d="M90.481 66.548l-17.099-9.866v5.558c-12.314 1.647-15.302 17.062-15.302 17.062s3.638-7.265 15.302-8.119v5.231L90.481 66.548z" fill="#000000" data-fill-palette-color="accent"></path></g></svg></g></svg></g></svg></g></svg></g></svg></g></svg></g><defs></defs></svg><rect width="95.481" height="66.19158939396102" fill="none" stroke="none" visibility="hidden"></rect></g></svg></g></svg>