<svg xmlns="http://www.w3.org/2000/svg" xmlns:xlink="http://www.w3.org/1999/xlink"
    xmlns:svgjs="http://svgjs.dev/svgjs" version="1.1" width="800" height="250">
    <rect id="backgroundrect" width="100%" height="100%" x="0" y="0" fill="none" stroke="none"
        style="" class="" />
    <g class="currentLayer" style="">
        <g transform="matrix(0.7,0,0,0.7,149.57575757575756,438.375281227047) " id="svg_5"
            class="selected">
            <svg xmlns="http://www.w3.org/2000/svg" xmlns:xlink="http://www.w3.org/1999/xlink"
                viewBox="0 0 396 70" data-background-color="#ffffff"
                preserveAspectRatio="xMidYMid meet" height="176" width="1000" id="svg_28"
                x="-142.73958035877797" y="-541.3202600819733">
                <g id="svg_1">
                    <g id="svg_9"
                        transform="matrix(1,0,0,1,0.2400000000000091,0.014044757359613413) "
                        stroke-width="0">
                        <svg viewBox="0 0 395.52 69.97191048528074" height="69.97190856933594"
                            width="395.5199890136719" id="svg_29">
                            <g id="svg_13">
                                <svg viewBox="0 0 603.7719130392256 106.81400245931283"
                                    height="69.97190856933594" width="395.5199890136719" id="svg_30">
                                    <g id="svg_31">
                                        <rect width="8.810675621032715" height="106.81400299072266"
                                            x="176.37664794921875" y="0" fill="#ffffff" opacity="1"
                                            stroke-width="0" stroke="transparent" fill-opacity="1"
                                            class="rect-in-0" data-fill-palette-color="primary"
                                            rx="1%" id="svg_12" data-palette-color="#124948" />
                                    </g>
                                    <g
                                        transform="matrix(1,0,0,1,208.25191303922574,0.2657064737793817) "
                                        id="svg_15">
                                        <svg viewBox="0 0 395.52 106.28258951175407"
                                            height="106.2825927734375" width="395.5199890136719"
                                            id="svg_32">
                                            <g id="svg_17">
                                                <svg viewBox="0 0 395.52 106.28258951175407"
                                                    height="106.2825927734375"
                                                    width="395.5199890136719" id="svg_33">
                                                    <g id="svg_19">
                                                        <svg viewBox="0 0 395.52 106.28258951175407"
                                                            height="106.2825927734375"
                                                            width="395.5199890136719" id="svg_34">
                                                            <g id="svg_21">
                                                                <svg width="395.5199890136719"
                                                                    viewBox="3 -33.85 138.25 34.15"
                                                                    height="106.2825927734375"
                                                                    data-palette-color="#124948"
                                                                    id="svg_35">
                                                                    <g id="svg_22">
                                                                        <svg id="svg_36" />
                                                                    </g>
                                                                    <g class="undefined-text-0"
                                                                        data-fill-palette-color="primary"
                                                                        id="svg_20">
                                                                        <path
                                                                            d="M3-33.85h5.9v20.95c0 3.1 0.65 5.307 1.95 6.62 1.3 1.32 3.067 1.98 5.3 1.98v0c2.267 0 3.943-0.76 5.03-2.28 1.08-1.513 1.62-3.62 1.62-6.32v0-20.95h5.95v21.4c0 1.733-0.223 3.367-0.67 4.9-0.453 1.533-1.197 2.883-2.23 4.05-1.033 1.167-2.4 2.09-4.1 2.77-1.7 0.687-3.783 1.03-6.25 1.03v0c-2.367 0-4.34-0.343-5.92-1.03-1.587-0.68-2.87-1.603-3.85-2.77-0.987-1.167-1.687-2.517-2.1-4.05-0.42-1.533-0.63-3.167-0.63-4.9v0zM35.25 0v-33.85h5.95v29.35h12.65v4.5zM55.1 0l13-33.85h4.7l13.05 33.85h-6.35l-3.1-8.85h-12.2l-3.2 8.85zM65.8-13.25h9.05c-1.067-3-1.983-5.727-2.75-8.18-0.767-2.447-1.35-4.37-1.75-5.77v0c-0.467 1.5-1.083 3.467-1.85 5.9-0.767 2.433-1.667 5.117-2.7 8.05zM89.1 0v-33.85h5.95v33.85zM112.55-33.85c-0.533 2.5-1.127 4.623-1.78 6.37-0.647 1.753-1.353 3.237-2.12 4.45-0.767 1.22-1.607 2.253-2.52 3.1-0.92 0.853-1.897 1.63-2.93 2.33v0l12.3 17.6h-6.9l-12.9-18.3v-0.35c3.067-1.133 5.44-2.993 7.12-5.58 1.687-2.58 2.98-5.787 3.88-9.62v0zM124.65 0v-12.95l-10.5-20.9h6.45l7.1 15.35 7.25-15.35h6.3l-10.65 21.15v12.7z"
                                                                            fill="#ffffff"
                                                                            fill-rule="nonzero"
                                                                            stroke="none"
                                                                            stroke-width="1"
                                                                            stroke-linecap="butt"
                                                                            stroke-linejoin="miter"
                                                                            stroke-miterlimit="10"
                                                                            stroke-dasharray=""
                                                                            stroke-dashoffset="0"
                                                                            font-family="none"
                                                                            font-weight="none"
                                                                            font-size="none"
                                                                            text-anchor="none"
                                                                            style="mix-blend-mode: normal"
                                                                            data-fill-palette-color="primary"
                                                                            opacity="1" id="svg_37" />
                                                                    </g>
                                                                </svg>
                                                            </g>
                                                        </svg>
                                                    </g>
                                                </svg>
                                            </g>
                                        </svg>
                                    </g>
                                    <g transform="matrix(1,0,0,1,0,0.2657064737793817) " id="svg_24">
                                        <svg viewBox="0 0 153.312044960468 106.28258951175407"
                                            height="106.2825927734375" width="153.31204223632812"
                                            id="svg_38">
                                            <g id="svg_26">
                                                <svg xmlns="http://www.w3.org/2000/svg"
                                                    xmlns:xlink="http://www.w3.org/1999/xlink"
                                                    version="1.1" x="0" y="0"
                                                    viewBox="20.37 30.698 70.11099999999999 48.604000000000006"
                                                    enable-background="new 0 0 100 100"
                                                    xml:space="preserve" height="106.2825927734375"
                                                    width="153.31204223632812" class="icon-icon-0"
                                                    data-fill-palette-color="accent" id="svg_25"><g fill="#000000" data-fill-palette-color="accent" id="svg_39"><path d="M25.452 63.114V38.787l24.15 22.888 24.111-22.838v12.873l5.082 2.938V30.698H20.37v37.498h37.479c1.139-1.816 2.525-3.544 4.16-5.082H25.452zM69.55 35.78L49.603 54.677 29.659 35.78H69.55z" fill="#ffffff" data-fill-palette-color="accent" id="svg_40"/><path d="M90.481 66.548l-17.099-9.866v5.558c-12.314 1.647-15.302 17.062-15.302 17.062s3.638-7.265 15.302-8.119v5.231L90.481 66.548z" fill="#ffffff" data-fill-palette-color="accent" id="svg_41"/></g></svg>
                                            </g>
                                        </svg>
                                    </g>
                                </svg>
                            </g>
                            <defs />
                        </svg>
                    </g>
                    <rect width="395.5199890136719" height="69.97190856933594" fill="none"
                        stroke="none" visibility="hidden"
                        transform="matrix(1,0,0,1,0.2400000000000091,0.014044757359613413) "
                        id="svg_42" />
                </g>
            </svg>
        </g>
    </g>
</svg>